<svg width="282" height="109" viewBox="0 0 282 109" fill="none" xmlns="http://www.w3.org/2000/svg">
<g filter="url(#filter0_d_501_5)">
<path d="M170.34 13.7507C166.546 14.474 164.092 16.4832 163.315 19.5103C163.033 20.5819 163.033 22.8724 163.301 23.9172C163.945 26.3818 165.795 28.0561 169.066 29.1143C169.656 29.3152 171.185 29.7438 172.445 30.0653C175.542 30.8823 176.48 31.3779 176.789 32.4093C177.124 33.5211 176.413 34.673 175.006 35.3026C174.308 35.6106 173.973 35.691 173.088 35.691C171.801 35.691 171.118 35.5169 170.259 34.9275C169.495 34.4185 169.026 33.6148 168.905 32.5835L168.825 31.8869H162.658L162.738 33.1326C162.872 35.4633 163.744 37.3519 165.352 38.8789C166.479 39.9371 167.364 40.4595 168.932 40.9819C172.445 42.1472 176.842 41.6516 179.671 39.763C181.294 38.678 182.406 37.0572 182.876 35.0882C183.171 33.8292 183.144 31.7664 182.809 30.5609C182.42 29.1678 182.085 28.5919 181.079 27.5873C179.752 26.2612 177.727 25.3102 174.496 24.5199C170.3 23.4751 169.267 22.8858 169.267 21.5061C169.267 20.3944 170.179 19.6577 171.815 19.43C174.268 19.0817 176.239 20.3542 176.239 22.2696V22.6447H182.447L182.353 21.6669C182.111 19.1487 181.481 17.7021 179.993 16.2019C179.242 15.4384 178.733 15.0633 177.982 14.7017C176.32 13.9114 175.636 13.7775 173.021 13.7373C171.734 13.7105 170.528 13.7239 170.34 13.7507Z" fill="#F6F9FA"/>
<path d="M119.728 41.0622L122.771 41.1024L125.828 41.1292L125.855 36.6152L125.895 32.0879L128.992 32.0075L131.526 36.5349L134.073 41.0622L137.546 41.1024C140.294 41.1292 140.991 41.1024 140.938 40.9685C140.911 40.8747 139.611 38.5842 138.055 35.8785L135.24 30.9627L135.883 30.5475C137.586 29.4625 139.088 27.306 139.557 25.3236C139.852 24.0779 139.825 21.9883 139.503 20.7159C138.779 17.8896 136.487 15.4518 133.765 14.6079C132.237 14.1257 131.338 14.0721 125.453 14.0721H119.661L119.728 41.0622ZM131.928 20.3676C133.765 21.3186 134.127 23.8904 132.625 25.2834C131.727 26.1139 131.352 26.1942 128.442 26.1942H125.895L125.855 23.0733L125.828 19.9524L128.55 19.9925C131.151 20.0327 131.298 20.0461 131.928 20.3676Z" fill="#F6F9FA"/>
<path d="M143.794 41.1292H160.285V35.2356H149.961V30.4135H158.944V24.6539H149.961V19.9658H160.016V14.0721H143.794V41.1292Z" fill="#F6F9FA"/>
<path d="M186.697 41.1292H203.188V35.2356H192.864V30.4135H201.847V24.6539H192.864V19.9658H202.785V14.0721H186.697V41.1292Z" fill="#F6F9FA"/>
<path d="M206.942 41.1292L209.999 41.1024L213.042 41.0622L213.176 25.3906L224.331 41.0622L226.905 41.1024L229.466 41.1292V14.0721H223.433L223.406 21.7874L223.366 29.5027L212.506 14.0855L209.73 14.0721H206.942V41.1292Z" fill="#F6F9FA"/>
<path d="M234.426 41.1292H239.763C242.819 41.1292 245.595 41.0622 246.292 40.9819C249.469 40.5934 252.446 39.1334 254.43 37.0037C258.13 32.9987 259.042 26.5827 256.615 21.4793C254.712 17.461 251.293 14.9562 246.761 14.2731C245.809 14.1257 244.107 14.0721 239.964 14.0721H234.426V41.1292ZM246.131 20.1667C248.638 20.6891 250.703 22.725 251.387 25.3236C251.695 26.4621 251.695 28.5919 251.4 29.7438C250.757 32.2754 249.054 34.1372 246.708 34.8605C245.863 35.1284 245.461 35.1686 243.208 35.1686H240.661L240.621 27.5605L240.594 19.9658H242.9C244.401 19.9658 245.541 20.0327 246.131 20.1667Z" fill="#F6F9FA"/>
<path d="M261.509 41.1292H278V35.2356H267.676V30.4135H276.659V24.6539H267.676V19.9658H277.598V14.0721H261.509V41.1292Z" fill="#F6F9FA"/>
<path d="M127.906 45.0136C126.619 45.1476 125.922 45.3619 124.876 45.8977C123.656 46.5406 122.677 47.5318 122.101 48.7507C121.672 49.6348 121.618 49.8759 121.564 51.135C121.511 52.3807 121.538 52.6352 121.873 53.6531C122.074 54.2827 122.57 55.3409 122.959 56.0106C123.361 56.6803 123.683 57.2697 123.683 57.3233C123.683 57.3768 123.374 57.6447 123.012 57.926C121.336 59.1985 120.009 61.1273 119.594 62.8418C119.339 63.9536 119.339 66.0297 119.594 67.0477C120.318 69.8472 122.503 71.9367 125.385 72.5395C126.458 72.7672 129.059 72.794 130.199 72.5931C131.419 72.3788 132.733 71.9367 133.792 71.401L134.744 70.9054L136.084 72.352L142.587 72.2716L138.364 67.3558L139.074 65.936C139.45 65.1457 139.919 63.9268 140.107 63.2303C140.455 61.864 140.75 59.4798 140.589 59.3057C140.536 59.2521 139.383 59.2253 138.028 59.2387L135.562 59.2789L135.401 60.3504C135.253 61.4488 134.824 62.9624 134.677 62.9624C134.583 62.9624 131.352 59.0378 131.298 58.8502C131.271 58.7699 131.808 58.3546 132.464 57.8992C134.905 56.2651 136.219 54.497 136.567 52.394C136.996 49.8491 135.669 47.1568 133.39 45.9245C132.009 45.1878 129.81 44.8127 127.906 45.0136ZM130.561 50.0098C131.526 50.7465 131.553 51.9922 130.628 52.9968C130.078 53.5862 128.576 54.6577 128.295 54.6577C128.013 54.6577 126.994 52.4476 126.927 51.6841C126.82 50.3447 127.759 49.5142 129.26 49.5946C129.904 49.6348 130.185 49.7285 130.561 50.0098ZM129.099 64.2081C130.252 65.5877 131.164 66.7798 131.137 66.8334C130.99 67.0611 129.341 67.4228 128.375 67.4362C127.115 67.4496 126.284 67.1549 125.64 66.445C124.93 65.6681 124.822 64.4492 125.359 63.324C125.654 62.6945 126.766 61.4354 126.9 61.5827C126.954 61.6363 127.946 62.8284 129.099 64.2081Z" fill="#F6F9FA"/>
<path d="M151.838 72.3386H158.005L158.032 64.5028L158.072 56.6535L169.2 72.3252L171.788 72.3386H174.362V45.2815H168.329V53.0102C168.329 59.0244 168.289 60.6987 168.168 60.5781C168.074 60.4844 165.621 57.0286 162.684 52.8763L157.375 45.3485L154.6 45.3083L151.838 45.2815V72.3386Z" fill="#F6F9FA"/>
<path d="M179.323 72.3386H195.948V66.445H185.49V61.6229H194.473V55.8632H185.49L185.517 53.546L185.557 51.2421L190.558 51.2019L195.546 51.1751L195.519 48.2551L195.478 45.3485L187.407 45.3083L179.323 45.2815V72.3386Z" fill="#F6F9FA"/>
<path d="M199.702 72.3386H205.869V45.2815H199.702V72.3386Z" fill="#F6F9FA"/>
<path d="M208.054 45.4423C208.081 45.536 210.361 51.4564 213.109 58.6091C215.857 65.7485 218.164 71.7626 218.231 71.9635L218.365 72.3386H221.22C223.808 72.3386 224.076 72.3118 224.17 72.0975C224.921 70.1687 234.024 45.5092 234.024 45.4155C234.024 45.3351 232.737 45.2815 230.686 45.2815H227.361L224.304 54.2559C222.628 59.1851 221.22 63.2303 221.167 63.2303C221.127 63.2303 220.228 60.7657 219.182 57.7653C218.137 54.7649 216.729 50.7331 216.045 48.7909L214.825 45.2815H211.406C208.725 45.2815 208.001 45.3217 208.054 45.4423Z" fill="#F6F9FA"/>
<path d="M241.573 45.5092C241.519 45.6432 239.199 51.6841 236.411 58.9306C233.622 66.1771 231.343 72.1645 231.343 72.2314C231.343 72.285 232.804 72.3386 234.601 72.3386H237.845L239.588 67.3826H249.536L250.368 69.6999C250.824 70.9723 251.253 72.0975 251.306 72.1778C251.387 72.2984 252.231 72.3386 254.712 72.3118L258.01 72.2716L247.311 45.3485L244.482 45.3083C241.881 45.2815 241.653 45.2949 241.573 45.5092ZM246.064 57.7117L247.525 61.7569H244.603C242.967 61.7569 241.666 61.7033 241.666 61.6363C241.666 61.5425 242.685 58.6359 244.375 53.9478C244.455 53.7469 244.536 53.5862 244.562 53.613C244.576 53.6397 245.26 55.4748 246.064 57.7117Z" fill="#F6F9FA"/>
<path d="M256.414 79.9735C256.146 80.3485 256.146 80.3753 256.374 80.3753C256.508 80.3619 256.83 80.1878 257.085 79.9735L257.541 79.5717H257.125C256.803 79.5717 256.629 79.6788 256.414 79.9735Z" fill="#F6F9FA"/>
<path d="M139.034 80.6298C137.854 81.1656 137.291 82.4515 137.68 83.7508C138.015 84.9027 138.98 85.5992 140.241 85.5992C141.34 85.5992 142.145 85.1304 142.614 84.1928C143.123 83.215 142.882 81.7282 142.091 81.0183C141.38 80.3753 139.986 80.1878 139.034 80.6298ZM141.327 81.9023C141.715 82.2908 141.783 82.4515 141.783 82.9739C141.783 83.4829 141.702 83.6704 141.34 84.0722C140.951 84.5009 140.831 84.5545 140.241 84.5545C139.651 84.5545 139.53 84.5009 139.141 84.0722C138.779 83.6704 138.699 83.4829 138.699 82.9739C138.699 82.4515 138.766 82.2908 139.155 81.9023C139.544 81.5139 139.704 81.4469 140.241 81.4469C140.777 81.4469 140.938 81.5139 141.327 81.9023Z" fill="#F6F9FA"/>
<path d="M145.644 80.5495C144.33 81.1656 143.713 82.773 144.316 84.0589C144.786 85.0768 145.59 85.5992 146.676 85.5992C147.735 85.5992 148.419 85.1706 148.902 84.233C149.036 83.9517 149.156 83.6972 149.156 83.657C149.156 83.6168 148.888 83.59 148.553 83.59C148.218 83.59 147.95 83.657 147.95 83.724C147.95 83.8044 147.802 84.0187 147.615 84.1928C147.199 84.6214 146.274 84.6616 145.764 84.2598C145.268 83.8713 145.067 83.148 145.255 82.5051C145.47 81.8086 145.966 81.4469 146.703 81.4469C147.226 81.4469 147.373 81.5139 147.735 81.9157C148.084 82.2908 148.272 82.3845 148.66 82.3845C148.929 82.3845 149.156 82.3577 149.156 82.3176C149.156 82.0363 148.54 81.1254 148.138 80.8174C147.749 80.5227 147.481 80.4423 146.824 80.4155C146.368 80.4021 145.845 80.4557 145.644 80.5495Z" fill="#F6F9FA"/>
<path d="M157.134 80.6298C155.579 81.3263 155.123 83.3623 156.222 84.6616C156.933 85.5189 158.247 85.8403 159.252 85.4117C159.668 85.2376 160.553 84.3669 160.553 84.1258C160.553 84.0722 160.593 83.9249 160.633 83.8044C160.7 83.6302 160.62 83.59 160.217 83.59C159.829 83.59 159.641 83.6838 159.292 84.0589C158.904 84.4607 158.756 84.5277 158.233 84.5277C157.737 84.5277 157.549 84.4607 157.214 84.1124C156.852 83.7642 156.799 83.6034 156.799 82.9873C156.799 82.3711 156.852 82.2104 157.214 81.8621C157.549 81.5139 157.737 81.4469 158.233 81.4469C158.756 81.4469 158.904 81.5139 159.292 81.9157C159.641 82.2908 159.829 82.3845 160.217 82.3845C160.62 82.3845 160.7 82.3443 160.633 82.1702C160.593 82.0497 160.553 81.9023 160.553 81.8487C160.553 81.6076 159.668 80.737 159.252 80.5629C158.649 80.3084 157.777 80.3352 157.134 80.6298Z" fill="#F6F9FA"/>
<path d="M181.079 80.5227C180.047 80.9379 179.457 81.8353 179.457 82.9873C179.457 83.7106 179.792 84.5946 180.208 84.9563C181.334 85.9475 183.265 85.7466 184.082 84.5678C184.578 83.8177 184.538 83.59 183.881 83.59C183.586 83.59 183.345 83.6436 183.345 83.7106C183.345 83.7642 183.184 83.9785 182.996 84.1794C182.473 84.6884 181.629 84.675 181.039 84.1392C180.637 83.7776 180.596 83.6704 180.596 82.9873C180.596 82.3042 180.637 82.197 181.039 81.8353C181.629 81.2996 182.473 81.2862 182.996 81.7952C183.184 81.9961 183.345 82.2104 183.345 82.264C183.345 82.3309 183.586 82.3845 183.881 82.3845C184.552 82.3845 184.592 82.13 184.029 81.3531C183.425 80.5227 182.058 80.1342 181.079 80.5227Z" fill="#F6F9FA"/>
<path d="M187.246 80.5227C186.201 80.9379 185.624 81.8086 185.624 82.9873C185.624 84.4473 186.536 85.4519 187.984 85.5724C190.424 85.7734 191.899 83.1346 190.357 81.2996C190.156 81.0585 189.754 80.7638 189.445 80.6298C188.869 80.3619 187.769 80.3084 187.246 80.5227ZM189.365 81.8487C189.995 82.4917 189.995 83.4829 189.365 84.1124C188.359 85.117 186.697 84.4071 186.697 82.9605C186.697 82.4515 186.764 82.2908 187.153 81.9023C187.555 81.5005 187.689 81.4469 188.279 81.4469C188.855 81.4469 189.016 81.5139 189.365 81.8487Z" fill="#F6F9FA"/>
<path d="M199.085 80.5629C198.522 80.804 198.227 81.2594 198.227 81.8621C198.227 82.5988 198.629 83.0007 199.688 83.3222C200.654 83.6034 200.989 83.8579 200.855 84.1928C200.654 84.7286 199.487 84.675 199.34 84.1258C199.286 83.9115 199.152 83.8579 198.669 83.8579C198.079 83.8579 198.066 83.8713 198.16 84.2196C198.294 84.809 198.616 85.2108 199.098 85.4117C200.077 85.8135 201.458 85.5055 201.807 84.7956C201.901 84.608 201.981 84.233 201.981 83.9651C201.981 83.2552 201.552 82.84 200.453 82.4783C199.407 82.1434 199.072 81.8086 199.487 81.5005C199.876 81.2192 200.211 81.2728 200.587 81.6478C200.815 81.8755 201.069 81.9827 201.404 81.9827C201.874 81.9827 201.874 81.9693 201.793 81.5541C201.686 81.0183 201.485 80.7772 200.949 80.5495C200.399 80.3218 199.621 80.3352 199.085 80.5629Z" fill="#F6F9FA"/>
<path d="M218.767 80.6566C217.078 81.5005 216.93 84.1258 218.499 85.1572C220.255 86.3225 222.762 85.05 222.762 82.9873C222.762 81.0451 220.563 79.7726 218.767 80.6566ZM221.127 81.8487C221.797 82.5185 221.81 83.4561 221.14 84.1124C220.496 84.7554 219.504 84.7286 218.861 84.0455C218.606 83.7642 218.539 83.5632 218.539 82.9605C218.539 82.3042 218.579 82.1836 218.981 81.8354C219.33 81.5139 219.531 81.4469 220.067 81.4469C220.617 81.4469 220.791 81.5139 221.127 81.8487Z" fill="#F6F9FA"/>
<path d="M268.374 80.6566C266.684 81.5005 266.537 84.1258 268.105 85.1706C268.843 85.6528 269.969 85.7332 270.706 85.3581C271.35 85.0366 271.632 84.7286 271.9 84.0856L272.101 83.59H271.497C271.162 83.59 270.894 83.657 270.894 83.724C270.894 83.8043 270.733 84.0187 270.546 84.1928C270.117 84.5946 269.245 84.6482 268.776 84.3133C268.4 84.0588 268.079 83.4427 268.079 82.9873C268.079 82.5319 268.4 81.9157 268.776 81.6612C269.245 81.3263 270.117 81.3799 270.546 81.7818C270.733 81.9559 270.894 82.1702 270.894 82.2506C270.894 82.3176 271.162 82.3845 271.497 82.3845H272.101L271.9 81.8889C271.632 81.246 271.35 80.9379 270.733 80.6298C270.063 80.295 269.098 80.3084 268.374 80.6566Z" fill="#F6F9FA"/>
<path d="M122.221 80.8308C122.141 81.0049 121.725 82.0898 121.283 83.2418C120.827 84.3803 120.465 85.3447 120.465 85.3849C120.465 85.4251 120.706 85.4653 121.001 85.4653C121.484 85.4653 121.551 85.4251 121.725 84.9965L121.926 84.5277H123.897L124.072 84.9965C124.232 85.4385 124.273 85.4653 124.836 85.4653H125.426L125.198 84.8893C125.077 84.5812 124.621 83.4829 124.206 82.4515L123.428 80.5763L122.892 80.5361C122.409 80.4959 122.329 80.5361 122.221 80.8308ZM123.254 82.7864L123.535 83.59H122.221L122.516 82.7864C122.677 82.3443 122.852 81.9827 122.905 81.9827C122.945 81.9827 123.106 82.3443 123.254 82.7864Z" fill="#F6F9FA"/>
<path d="M126.632 85.4653H127.973C129.059 85.4653 129.434 85.4117 129.85 85.1974C131.553 84.3267 131.553 81.6478 129.85 80.7772C129.434 80.5629 129.059 80.5093 127.973 80.5093H126.632V85.4653ZM129.609 81.9693C129.904 82.2908 129.984 82.5185 129.984 82.9873C129.984 83.4561 129.904 83.6838 129.609 84.0053C129.287 84.3669 129.113 84.4473 128.469 84.5009L127.705 84.5545V81.4201L128.469 81.4737C129.113 81.5273 129.287 81.6076 129.609 81.9693Z" fill="#F6F9FA"/>
<path d="M133.819 85.3983L134.382 85.4385C134.69 85.4653 134.945 85.4519 134.945 85.4117C134.945 85.3849 135.36 84.2598 135.87 82.9203L136.795 80.4959L136.192 80.5361L135.575 80.5763L135.025 82.1434C134.717 83.0007 134.435 83.7374 134.395 83.791C134.342 83.8311 134.047 83.1212 133.725 82.2238L133.135 80.5763L132.505 80.5361L131.888 80.4959L133.819 85.3983Z" fill="#F6F9FA"/>
<path d="M151.784 80.6164C151.757 80.67 151.302 81.7818 150.792 83.0944L149.854 85.4653H150.444C150.98 85.4653 151.034 85.4385 151.181 84.9965L151.355 84.5277H153.326L153.527 84.9965C153.702 85.4251 153.769 85.4653 154.305 85.4653H154.881L152.87 80.5093H152.361C152.079 80.5093 151.825 80.5495 151.784 80.6164ZM152.723 82.7864L153.004 83.59H152.334C151.757 83.59 151.69 83.5632 151.771 83.3489C151.825 83.2284 151.959 82.8667 152.066 82.5453C152.173 82.2372 152.307 81.9827 152.347 81.9827C152.401 81.9827 152.562 82.3443 152.723 82.7864Z" fill="#F6F9FA"/>
<path d="M162.027 85.4653H163.234V80.5093H162.027V85.4653Z" fill="#F6F9FA"/>
<path d="M165.46 82.8131C164.95 84.0856 164.521 85.2108 164.481 85.2911C164.427 85.4117 164.588 85.4653 165.004 85.4653C165.567 85.4653 165.621 85.4385 165.728 85.0233L165.862 84.5946L167.9 84.5143L168.061 84.9965C168.208 85.4385 168.248 85.4653 168.812 85.4653C169.133 85.4653 169.401 85.4251 169.388 85.3581C169.388 85.3046 168.946 84.2062 168.423 82.9203L167.457 80.5763L166.358 80.4959L165.46 82.8131ZM167.444 83.282C167.538 83.5766 167.498 83.59 166.934 83.59C166.599 83.59 166.318 83.5365 166.318 83.4695C166.318 83.4025 166.452 83.0007 166.613 82.5854L166.908 81.822L167.122 82.4113C167.256 82.7194 167.404 83.1212 167.444 83.282Z" fill="#F6F9FA"/>
<path d="M172.753 85.4653H175.837V84.5277H173.826V83.4561H175.569V82.5319L173.893 82.4515L173.853 81.9425L173.812 81.4469H175.837V80.5093H172.753V85.4653Z" fill="#F6F9FA"/>
<path d="M192.462 85.4653H193.521L193.601 82.5453L194.647 84.0053C195.639 85.3715 195.733 85.4653 196.162 85.4653H196.618V80.5093H195.559L195.478 83.3623L194.473 81.9425C193.508 80.5763 193.454 80.5227 192.971 80.5093H192.462V85.4653Z" fill="#F6F9FA"/>
<path d="M203.483 82.5051C203.523 84.4205 203.536 84.5276 203.858 84.8625C204.408 85.4519 204.89 85.6394 205.695 85.5724C206.526 85.5055 207.036 85.184 207.371 84.5143C207.572 84.1526 207.612 83.7106 207.612 82.2774V80.5093H206.539V82.1166C206.539 83.0542 206.472 83.8579 206.379 84.0588C206.124 84.6348 205.185 84.742 204.77 84.233C204.569 84.0053 204.528 83.6838 204.528 82.2372V80.5093H203.442L203.483 82.5051Z" fill="#F6F9FA"/>
<path d="M209.221 85.4653H212.305V84.5277H210.428V80.5093H209.221V85.4653Z" fill="#F6F9FA"/>
<path d="M212.573 81.4469H214.048V85.4653H215.12V81.4469H216.461V80.5093H212.573V81.4469Z" fill="#F6F9FA"/>
<path d="M224.237 85.4653H225.31V84.6616C225.31 83.8713 225.323 83.8579 225.685 83.8579C225.993 83.8579 226.114 83.9919 226.489 84.6616C226.932 85.4653 226.932 85.4653 227.535 85.4653H228.139L227.911 85.0233C227.79 84.7956 227.535 84.3669 227.374 84.099C227.053 83.6034 227.053 83.59 227.321 83.4561C227.937 83.1346 228.165 82.0497 227.79 81.313C227.468 80.6834 226.972 80.5093 225.511 80.5093H224.237V85.4653ZM226.623 81.6612C227.254 82.1032 226.811 82.7864 225.886 82.7864H225.31V81.4469H225.819C226.101 81.4469 226.463 81.5407 226.623 81.6612Z" fill="#F6F9FA"/>
<path d="M229.6 85.4653H230.672V80.5093H229.6V85.4653Z" fill="#F6F9FA"/>
<path d="M233.126 82.2908C232.737 83.2552 232.308 84.3803 232.161 84.7554L231.879 85.4653H232.469C233.032 85.4653 233.072 85.4385 233.22 84.9965L233.381 84.5143L235.419 84.5946L235.553 85.0233C235.66 85.4385 235.714 85.4653 236.277 85.4653C236.786 85.4653 236.853 85.4251 236.786 85.2242C236.733 85.1036 236.29 83.9919 235.794 82.7462L234.896 80.5093H233.823L233.126 82.2908ZM234.721 82.7596C234.856 83.1078 234.963 83.4293 234.963 83.4829C234.963 83.5499 234.695 83.59 234.359 83.59C234.024 83.59 233.756 83.5632 233.756 83.5231C233.756 83.3088 234.333 81.9827 234.4 82.0497C234.44 82.0898 234.587 82.4113 234.721 82.7596Z" fill="#F6F9FA"/>
<path d="M242.176 82.4113C242.136 84.2732 242.122 84.3267 241.814 84.4741C241.358 84.7018 240.956 84.5143 240.795 84.0187C240.688 83.6302 240.621 83.59 240.165 83.59C239.696 83.59 239.655 83.6168 239.655 83.9517C239.655 84.4607 240.098 85.1438 240.58 85.3983C241.144 85.6796 242.055 85.6528 242.524 85.3447C243.195 84.9027 243.262 84.6348 243.275 82.4783V80.5093H242.216L242.176 82.4113Z" fill="#F6F9FA"/>
<path d="M245.045 82.5051C245.085 84.4205 245.099 84.5276 245.42 84.8625C245.97 85.4519 246.453 85.6394 247.257 85.5724C248.088 85.5055 248.598 85.184 248.933 84.5143C249.134 84.1526 249.174 83.7106 249.174 82.2774V80.5093H248.102V82.1166C248.102 83.0542 248.035 83.8579 247.941 84.0588C247.686 84.6348 246.748 84.742 246.332 84.233C246.131 84.0053 246.091 83.6838 246.091 82.2372V80.5093H245.005L245.045 82.5051Z" fill="#F6F9FA"/>
<path d="M250.783 85.4653H251.99V84.6482C251.99 83.8445 251.99 83.8445 252.352 83.8847C252.634 83.9115 252.808 84.099 253.156 84.6884C253.599 85.4519 253.626 85.4653 254.216 85.4653H254.832L254.457 84.8223C254.256 84.4741 254.014 84.0588 253.907 83.9115C253.746 83.657 253.76 83.6034 254.055 83.4159C254.229 83.2954 254.457 82.9873 254.537 82.7194C254.765 82.0095 254.604 81.4067 254.055 80.9245C253.599 80.5227 253.559 80.5093 252.191 80.5093H250.783V85.4653ZM253.331 81.7148C253.652 82.0363 253.652 82.1032 253.384 82.4917C253.223 82.7194 253.049 82.7864 252.58 82.7864H251.99V81.4469H252.526C252.888 81.4469 253.156 81.5407 253.331 81.7148Z" fill="#F6F9FA"/>
<path d="M258.56 85.4653H259.82C261.616 85.4653 262.22 85.1706 262.729 84.0589C263.319 82.773 262.716 81.1254 261.469 80.6566C261.254 80.5763 260.517 80.5093 259.82 80.5093H258.56V85.4653ZM261.107 81.688C262.086 82.1702 262.139 83.6972 261.201 84.2598C260.959 84.4205 260.53 84.5277 260.209 84.5277H259.632V81.4469H260.142C260.41 81.4469 260.852 81.5541 261.107 81.688Z" fill="#F6F9FA"/>
<path d="M264.459 85.4653H265.531V80.5093H264.459V85.4653Z" fill="#F6F9FA"/>
<path d="M273.924 82.5453C273.482 83.6704 273.039 84.7956 272.945 85.0233L272.771 85.4653H273.361C273.924 85.4653 273.964 85.4385 274.112 84.9965L274.273 84.5143L276.311 84.5946L276.445 85.0233C276.552 85.4385 276.606 85.4653 277.169 85.4653C277.678 85.4653 277.745 85.4385 277.678 85.2242C277.625 85.1036 277.182 83.9919 276.699 82.7462L275.801 80.5093H274.715L273.924 82.5453ZM275.614 82.7596C275.748 83.1078 275.855 83.4293 275.855 83.4829C275.855 83.5499 275.587 83.59 275.252 83.59C274.916 83.59 274.648 83.5632 274.648 83.5231C274.648 83.3088 275.225 81.9827 275.292 82.0497C275.332 82.0898 275.479 82.4113 275.614 82.7596Z" fill="#F6F9FA"/>
<path d="M256.012 85.4653H257.085V80.5093H256.012V85.4653Z" fill="#F6F9FA"/>
<path fill-rule="evenodd" clip-rule="evenodd" d="M10.7866 97.2803L38.0462 81.3552C38.6453 82.3525 40.3324 84.9405 42.2872 87.3142C44.7308 90.2814 58.4794 101.521 72.765 98.9424C87.0505 96.3641 91.2316 92.1133 97.0155 85.2841C101.643 79.8207 102.939 71.3934 103.009 67.8626V6.74839C103.164 0.908683 98.0322 0.878412 95.7791 2.10952C89.7957 5.53637 82.903 9.57659 80.3508 11.0726L80.3471 11.0747L80.3411 11.0783L80.3331 11.0829L80.3281 11.0859L80.3229 11.0889L80.3115 11.0956L80.3036 11.1002L80.3009 11.1018L80.2925 11.1068L80.2878 11.1095L80.285 11.1111C79.7383 11.4316 79.4054 11.6267 79.3428 11.6624C78.9945 11.8614 72.111 15.8719 72.111 15.8719V7.70653C72.111 1.53837 69.0708 0.0109514 65.1376 0.0109343C63.8252 0.0109286 62.143 0.00889316 60.2315 0.00658021C54.3059 -0.000589762 46.176 -0.0104268 40.024 0.0292635C29.8533 0.0948811 23.4892 1.65196 15.22 8.21217C7.63578 14.229 4.45041 23.684 4 28.4417V93.1406C4 96.983 8.06097 98.5193 10.7866 97.2803ZM95.8446 9.99792L72.1846 23.7337V91.851C75.2084 91.5963 82.6444 89.8566 88.1985 84.9352C93.7526 80.0139 95.9847 72.1423 96.4065 68.8216V10.7781C96.3923 10.4175 96.2601 9.75669 95.8446 9.99792ZM42.4638 28.5189C41.9831 32.0772 42.4638 46.3108 42.4638 46.3108C46.0786 45.5577 50.3656 44.2235 53.1953 42.5453C61.3912 37.6845 64.19 30.1323 65.2404 26.8576C66.2908 23.5829 65.6213 6.58513 65.6213 6.58513C59.3295 7.13761 54.4226 10.2911 50.1454 13.8917C44.8249 18.3704 42.997 24.5715 42.4638 28.5189ZM42.4655 52.1402C42.4655 52.1402 41.9848 66.3739 42.4655 69.9321C42.9988 73.8795 44.8267 80.0806 50.1471 84.5593C54.4244 88.1599 59.3312 91.3134 65.623 91.8659C65.623 91.8659 66.2925 74.8681 65.2421 71.5934C64.1918 68.3187 61.3929 60.7665 53.197 55.9057C50.3674 54.2275 46.0804 52.8933 42.4655 52.1402ZM35.679 6.51781C40.2436 6.21587 47.8997 6.31905 47.8997 6.31905L43.5666 10.4418C37.0441 16.1281 34.9652 24.9252 34.7411 28.613V75.6977L12.1088 88.8105C11.5535 89.0851 11.2986 89.2342 11.1815 89.1615C11.0821 89.0997 11.0821 88.878 11.0821 88.4372V28.613C11.2842 26.5345 12.7615 21.0978 17.0544 15.9781C21.3473 10.8584 27.9465 7.02931 35.679 6.51781Z" fill="#E08161"/>
</g>
<defs>
<filter id="filter0_d_501_5" x="0" y="0" width="282" height="108.324" filterUnits="userSpaceOnUse" color-interpolation-filters="sRGB">
<feFlood flood-opacity="0" result="BackgroundImageFix"/>
<feColorMatrix in="SourceAlpha" type="matrix" values="0 0 0 0 0 0 0 0 0 0 0 0 0 0 0 0 0 0 127 0" result="hardAlpha"/>
<feOffset dy="5"/>
<feGaussianBlur stdDeviation="2"/>
<feComposite in2="hardAlpha" operator="out"/>
<feColorMatrix type="matrix" values="0 0 0 0 0 0 0 0 0 0 0 0 0 0 0 0 0 0 0.25 0"/>
<feBlend mode="normal" in2="BackgroundImageFix" result="effect1_dropShadow_501_5"/>
<feBlend mode="normal" in="SourceGraphic" in2="effect1_dropShadow_501_5" result="shape"/>
</filter>
</defs>
</svg>
