<svg width="21" height="20" viewBox="0 0 21 20" fill="none" xmlns="http://www.w3.org/2000/svg">
<g clip-path="url(#clip0_67_632)">
<path d="M18.0811 2.82617H1.9606C0.831259 2.82617 0 3.7543 0 4.7827V15.2175C0 16.2963 0.879524 17.174 1.9606 17.174H18.0811C19.1621 17.174 20.0417 16.2963 20.0417 15.2175V4.7827C20.0417 3.73766 19.1956 2.82617 18.0811 2.82617ZM1.9606 4.13051H18.0811C18.2281 4.13051 18.3778 4.18449 18.4932 4.27949L10.4824 12.2737C10.2279 12.5276 9.81372 12.5276 9.55929 12.2737L1.54845 4.27953C1.66295 4.18539 1.81228 4.13051 1.9606 4.13051ZM18.7346 15.2175C18.7346 15.5771 18.4414 15.8696 18.0811 15.8696H1.9606C1.60024 15.8696 1.30705 15.5771 1.30705 15.2175V5.88324L8.63502 13.196C9.39915 13.9584 10.6424 13.9585 11.4066 13.196L18.7346 5.88324V15.2175H18.7346Z" fill="#F6F9FA"/>
</g>
<defs>
<clipPath id="clip0_67_632">
<rect width="20.0417" height="20" fill="white"/>
</clipPath>
</defs>
</svg>
