<svg width="21" height="20" viewBox="0 0 21 20" fill="none" xmlns="http://www.w3.org/2000/svg">
<g clip-path="url(#clip0_67_651)">
<path d="M19.4675 13.0732L16.7536 10.365C15.9899 9.60297 14.7474 9.60301 13.9838 10.365L11.8855 12.4589C11.8855 12.459 11.8854 12.459 11.8853 12.4591C11.8853 12.4591 11.8853 12.4592 11.8852 12.4592C11.6306 12.7131 11.2166 12.713 10.9621 12.4591L7.55618 9.06032C7.301 8.80571 7.30092 8.39375 7.5561 8.13895C7.55614 8.13891 7.55618 8.13887 7.55622 8.13887C7.5563 8.13879 7.55634 8.13875 7.55645 8.13864L9.65464 6.04481C10.4201 5.28094 10.4201 4.04458 9.65464 3.28071L6.94076 0.572427C6.17698 -0.189487 4.93452 -0.189526 4.17078 0.572427C3.83665 0.905864 1.51608 3.22157 1.14907 3.58786C0.385452 4.34985 -0.00113268 5.24063 2.49271e-06 6.23551C0.00325143 9.08274 3.22197 12.1061 5.56591 14.4452C7.91071 16.7851 10.9396 19.9962 13.7926 19.9995C13.7941 19.9995 13.7954 19.9995 13.797 19.9995C14.792 19.9994 15.6833 19.6136 16.4456 18.8529C16.902 18.3975 19.1006 16.2035 19.4675 15.8374C20.233 15.0734 20.233 13.8372 19.4675 13.0732ZM5.09403 1.49391C5.34858 1.24 5.76284 1.23981 6.01747 1.49387L8.73132 4.20211C8.98646 4.45668 8.9865 4.86883 8.73132 5.12344L7.09456 6.7568L3.45731 3.12719L5.09403 1.49391ZM15.5224 17.9314C15.0066 18.4461 14.4423 18.6964 13.797 18.6964C13.7961 18.6964 13.7951 18.6964 13.7941 18.6964C11.449 18.6937 8.33236 15.3633 6.48931 13.5238C4.44968 11.4885 1.30839 8.52129 1.30572 6.23399C1.30498 5.58891 1.55574 5.02477 2.07228 4.50926L2.53394 4.04856L6.24975 7.75653C6.12504 8.01645 6.05912 8.30293 6.05912 8.59954C6.05912 9.12161 6.26291 9.61246 6.63285 9.98164L10.0387 13.3804C10.6405 13.981 11.5396 14.1079 12.2675 13.7619L15.9841 17.4706L15.5224 17.9314ZM18.5443 14.9159L16.9074 16.5493L13.2702 12.9198L14.907 11.2864C15.1616 11.0323 15.5758 11.0323 15.8303 11.2864L18.5443 13.9946C18.7994 14.2492 18.7994 14.6613 18.5443 14.9159Z" fill="#F6F9FA"/>
</g>
<defs>
<clipPath id="clip0_67_651">
<rect width="20.0417" height="20" fill="white"/>
</clipPath>
</defs>
</svg>
