<svg width="160" height="160" viewBox="0 0 160 160" fill="none" xmlns="http://www.w3.org/2000/svg">
<g clip-path="url(#clip0_527_14)">
<path d="M160 36.129C160 16.2065 143.794 0 123.871 0H36.129C16.2065 0 0 16.2065 0 36.129C0 56.0516 16.2065 72.2581 36.129 72.2581H43.2206C33.729 81.8658 28.3871 94.6942 28.3871 108.387C28.3871 136.846 51.5406 160 80 160C108.459 160 131.613 136.846 131.613 108.387C131.613 94.6942 126.271 81.8658 116.779 72.2581H123.871C143.794 72.2581 160 56.0516 160 36.129ZM103.226 148.552C96.3845 152.526 88.4645 154.839 80 154.839C71.5355 154.839 63.6155 152.526 56.7742 148.552V141.935C56.7742 129.13 67.1923 118.71 80 118.71C92.8077 118.71 103.226 129.13 103.226 141.935V148.552ZM126.452 108.387C126.452 123.306 119.352 136.568 108.387 145.074V141.935C108.387 126.284 95.6516 113.548 80 113.548C64.3484 113.548 51.6129 126.284 51.6129 141.935V145.074C40.6477 136.568 33.5484 123.306 33.5484 108.387C33.5484 94.2581 39.8684 81.1458 50.9032 72.2581H65.4348C60.16 76.5187 56.7742 83.0297 56.7742 90.3226C56.7742 103.128 67.1923 113.548 80 113.548C92.8077 113.548 103.226 103.128 103.226 90.3226C103.226 83.0297 99.84 76.5187 94.5652 72.2581H109.097C120.132 81.1458 126.452 94.2581 126.452 108.387ZM80 72.2581C89.9587 72.2581 98.0645 80.3613 98.0645 90.3226C98.0645 100.284 89.9587 108.387 80 108.387C70.0413 108.387 61.9355 100.284 61.9355 90.3226C61.9355 80.3613 70.0413 72.2581 80 72.2581ZM36.129 67.0968C19.0529 67.0968 5.16129 53.2052 5.16129 36.129C5.16129 19.0529 19.0529 5.16129 36.129 5.16129H123.871C140.947 5.16129 154.839 19.0529 154.839 36.129C154.839 53.2052 140.947 67.0968 123.871 67.0968H36.129Z" fill="#91B9BC"/>
<path d="M126.452 48.3484L140.815 55.9019L138.072 39.9045L149.698 28.5755L133.634 26.2426L126.452 11.6877L119.27 26.2426L103.226 28.5729L87.1819 26.2426L79.9999 11.6877L72.818 26.2426L56.7741 28.5729L40.7303 26.2426L33.5483 11.6877L26.3664 26.2426L10.3019 28.5755L21.9277 39.9045L19.1845 55.9019L33.5483 48.3484L47.9122 55.9019L45.169 39.9045L56.7741 28.5961L68.3793 39.9071L65.6361 55.9045L79.9999 48.3484L94.3638 55.9019L91.6206 39.9045L103.226 28.5961L114.831 39.9071L112.088 55.9045L126.452 48.3484ZM39.6232 38.1032L41.058 46.4671L33.5483 42.5187L26.0387 46.4671L27.4735 38.1032L21.3961 32.1806L29.7935 30.96L33.5483 23.3523L37.3032 30.96L45.7006 32.1806L39.6232 38.1032ZM86.0774 38.1032L87.5122 46.4671L79.9999 42.5187L72.4903 46.4671L73.9251 38.1032L67.8477 32.1806L76.2451 30.96L79.9999 23.3523L83.7548 30.96L92.1522 32.1806L86.0774 38.1032ZM114.302 32.1806L122.697 30.96L126.452 23.3523L130.206 30.96L138.604 32.1806L132.529 38.1032L133.964 46.4671L126.452 42.5187L118.942 46.4671L120.377 38.1032L114.302 32.1806Z" fill="#91B9BC"/>
</g>
<defs>
<clipPath id="clip0_527_14">
<rect width="160" height="160" fill="white"/>
</clipPath>
</defs>
</svg>
