<svg width="160" height="160" viewBox="0 0 160 160" fill="none" xmlns="http://www.w3.org/2000/svg">
<path d="M130.437 65.0549C133.571 62.2754 137.122 59.1257 137.122 54.7132C137.122 50.3006 133.571 47.1505 130.437 44.371C128.664 42.7985 126.654 41.0161 126.225 39.6932C125.754 38.2431 126.342 35.5238 126.862 33.1245C127.73 29.1147 128.715 24.569 126.213 21.1318C123.688 17.6629 119.033 17.1979 114.927 16.7879C112.505 16.546 109.76 16.2721 108.561 15.3993C107.392 14.549 106.3 12.0477 105.336 9.84084C103.671 6.03155 101.786 1.71416 97.6542 0.373293C96.8914 0.125853 96.0817 0 95.2468 0C92.0915 0 89.0868 1.75128 86.1811 3.44538C84.0271 4.7005 81.5864 6.12328 80.0002 6.12328C78.4128 6.12328 75.9725 4.7005 73.8185 3.44538C70.9128 1.75128 67.9081 0 64.7524 0C63.9166 0 63.1069 0.125853 62.3445 0.373293C58.214 1.71459 56.3284 6.03198 54.6645 9.84042C53.7004 12.0473 52.6074 14.5486 51.4393 15.3988C50.2392 16.2717 47.4948 16.5456 45.0733 16.7875C40.9662 17.1975 36.3118 17.6625 33.7879 21.1313C31.2858 24.569 32.2695 29.1143 33.139 33.1241C33.6582 35.5234 34.2474 38.2426 33.7764 39.6927C33.3463 41.0152 31.3374 42.7977 29.5643 44.3702C26.4304 47.15 22.8784 50.3002 22.8784 54.7127C22.8784 59.1257 26.4304 62.2763 29.5643 65.0553C31.3374 66.6278 33.3472 68.4098 33.7764 69.7315C34.2474 71.1824 33.6582 73.9021 33.139 76.3014C32.27 80.3112 31.2858 84.8569 33.7875 88.2941C36.3096 91.7591 40.9568 92.2267 45.0596 92.6363L28.4389 146.198C28.0673 147.394 28.4283 148.696 29.3621 149.531C30.2956 150.366 31.6309 150.579 32.7785 150.076L49.9777 142.544L59.8923 158.49C60.4806 159.437 61.5131 160 62.6086 160C62.7434 160 62.8804 159.992 63.0169 159.974C64.2592 159.815 65.2942 158.945 65.6649 157.749L80.0002 111.555L94.3346 157.749C94.7062 158.945 95.7412 159.815 96.9835 159.974C97.1201 159.992 97.2561 160 97.3918 160C98.4874 160 99.5189 159.436 100.108 158.49L110.022 142.544L127.222 150.076C128.367 150.579 129.704 150.367 130.637 149.531C131.571 148.696 131.932 147.393 131.561 146.198L114.94 92.6376C119.044 92.2276 123.69 91.76 126.213 88.295C128.715 84.8573 127.731 80.3121 126.862 76.3018C126.342 73.9025 125.753 71.1828 126.225 69.7323C126.654 68.4094 128.664 66.6274 130.437 65.0549ZM61.6287 149.164L53.9495 136.812C53.1095 135.461 51.4047 134.933 49.9483 135.571L36.6262 141.405L51.3463 93.9677C51.3761 93.9882 51.4094 94.007 51.4389 94.0279C52.6069 94.8782 53.7004 97.379 54.6641 99.5859C56.3279 103.395 58.2144 107.712 62.345 109.053C63.1073 109.3 63.9183 109.426 64.7532 109.426C67.9085 109.426 70.9132 107.674 73.8189 105.981C74.2997 105.701 74.7946 105.413 75.292 105.134L61.6287 149.164ZM110.051 135.57C108.595 134.933 106.89 135.462 106.05 136.812L98.3705 149.163L84.708 105.132C85.2046 105.411 85.7003 105.7 86.1811 105.98C89.0868 107.674 92.0915 109.425 95.2468 109.425C96.0825 109.425 96.8922 109.3 97.655 109.052C101.786 107.711 103.672 103.393 105.336 99.5851C106.3 97.3781 107.393 94.8773 108.561 94.027C108.589 94.0061 108.623 93.9874 108.654 93.9673L123.374 141.404L110.051 135.57ZM120.138 67.7558C119.134 70.8488 119.883 74.3091 120.607 77.6555C121.163 80.2191 121.854 83.4093 121.039 84.5292C120.201 85.6807 116.924 86.0079 114.292 86.2707C110.903 86.609 107.398 86.9584 104.796 88.853C102.224 90.7246 100.824 93.9268 99.472 97.0228C98.4029 99.4686 97.0731 102.513 95.6781 102.966C95.5531 103.007 95.4123 103.026 95.2463 103.026C93.8197 103.026 91.4733 101.658 89.4029 100.452C86.4098 98.7075 83.3151 96.9038 79.9998 96.9038C76.6837 96.9038 73.589 98.7079 70.5958 100.452C68.5258 101.658 66.1794 103.026 64.7532 103.026C64.5873 103.026 64.4465 103.007 64.3215 102.966C62.9265 102.513 61.5967 99.469 60.5276 97.0228C59.1752 93.9264 57.7763 90.7242 55.2038 88.853C52.6005 86.9584 49.0963 86.6086 45.7064 86.2702C43.0741 86.0074 39.7985 85.6802 38.9602 84.5292C38.1454 83.4093 38.8361 80.2195 39.3911 77.6564C40.1159 74.3099 40.8659 70.8496 39.8612 67.7554C38.8945 64.7776 36.3092 62.4849 33.8092 60.2682C31.6842 58.3834 29.2764 56.2477 29.2764 54.7132C29.2764 53.1786 31.6842 51.0425 33.8092 49.1581C36.3088 46.941 38.8945 44.6479 39.8621 41.6693C40.8659 38.5758 40.1164 35.1159 39.392 31.7695C38.8361 29.206 38.1454 26.0166 38.9602 24.8967C39.7985 23.7452 43.075 23.418 45.7076 23.1552C49.0963 22.8169 52.6001 22.4675 55.2034 20.5733C57.7754 18.7009 59.1748 15.4987 60.5271 12.4023C61.5963 9.95646 62.926 6.91252 64.3202 6.45945C64.4452 6.41935 64.5869 6.3993 64.7524 6.3993C66.179 6.3993 68.5254 7.76747 70.5958 8.97395C73.589 10.7188 76.6837 12.5226 79.9998 12.5226C83.3151 12.5226 86.4098 10.7184 89.4029 8.97395C91.4737 7.76747 93.8201 6.3993 95.2468 6.3993C95.4127 6.3993 95.5535 6.41935 95.6776 6.45988C97.0727 6.91252 98.4025 9.95646 99.4716 12.4031C100.825 15.5 102.224 18.7022 104.796 20.5737C107.398 22.4675 110.902 22.8173 114.292 23.1557C116.924 23.4185 120.201 23.7457 121.039 24.8971C121.854 26.017 121.163 29.2073 120.607 31.77C119.883 35.1164 119.134 38.5767 120.138 41.6693C121.105 44.6479 123.69 46.941 126.191 49.159C128.315 51.0429 130.723 53.179 130.723 54.7136C130.723 56.2481 128.315 58.3838 126.191 60.2678C123.69 62.4845 121.105 64.7776 120.138 67.7558Z" fill="#91B9BC"/>
<path d="M79.9998 18.4487C60.0037 18.4487 43.7354 34.717 43.7354 54.7131C43.7354 74.7092 60.0037 90.9775 79.9998 90.9775C99.9959 90.9775 116.264 74.7092 116.264 54.7131C116.264 34.717 99.9963 18.4487 79.9998 18.4487ZM79.9998 84.5782C63.5314 84.5782 50.1347 71.1811 50.1347 54.7131C50.1347 38.2452 63.5314 24.848 79.9998 24.848C96.4673 24.848 109.865 38.2452 109.865 54.7131C109.865 71.1811 96.4673 84.5782 79.9998 84.5782Z" fill="#91B9BC"/>
<path d="M79.9998 29.5161C66.1065 29.5161 54.8023 40.8194 54.8023 54.7136C54.8023 56.4811 56.2345 57.9132 58.002 57.9132C59.7694 57.9132 61.2016 56.4811 61.2016 54.7136C61.2016 44.3484 69.6342 35.9154 79.9998 35.9154C81.7673 35.9154 83.1994 34.4833 83.1994 32.7158C83.1994 30.9483 81.7673 29.5161 79.9998 29.5161Z" fill="#91B9BC"/>
</svg>
