<svg width="160" height="160" viewBox="0 0 160 160" fill="none" xmlns="http://www.w3.org/2000/svg">
<g clip-path="url(#clip0_527_2)">
<path d="M124.02 123.722C120.557 121.938 116.616 120.333 112.304 118.948C112.051 118.813 111.555 118.547 110.885 118.179C105.386 115.15 101.052 112.285 98.9691 110.327V102.315C108.993 96.5839 115.848 86.301 118.038 73.7145C123.717 72.0884 128.66 66.7583 128.66 61.8557C128.66 56.893 124.929 53.5997 118.763 52.9174V49.4845H130.309V47.0103C130.309 43.8252 127.544 31.5688 121.401 31.3504C117.244 19.036 107.802 9.19423 95.6701 4.53542V0H64.3299V4.53542C52.1818 9.19918 42.7335 19.042 38.587 31.3511C32.4526 31.5843 29.6907 43.8271 29.6907 47.0103V49.4845H41.2371V52.9174C35.0707 53.5997 31.3402 56.893 31.3402 61.8557C31.3402 66.7583 36.283 72.0887 41.9615 73.7148C44.1544 86.306 51.0103 96.5885 61.0309 102.315V110.327C58.9486 112.285 54.6144 115.149 49.1196 118.177C48.4401 118.549 47.9396 118.818 47.6886 118.952C43.2653 120.403 39.3214 122.033 35.9822 123.787C15.3402 134.404 14.8566 148.634 14.846 149.235L14.8453 160H145.155V149.266C145.152 148.66 144.842 134.307 124.02 123.722ZM112.165 124.113C115.138 125.122 117.899 126.24 120.412 127.454V141.856H112.165V124.113ZM123.711 61.8557C123.711 63.8766 121.525 66.6283 118.675 68.1468C118.73 67.169 118.763 57.891 118.763 57.891C123.173 58.5092 123.711 60.7894 123.711 61.8557ZM95.6701 9.88305C105.058 14.0325 112.431 21.7613 116.139 31.3402H95.6701V9.88305ZM69.2783 4.94845H90.7216V31.3402H69.2783V4.94845ZM64.3299 9.88239V31.3402H43.8495C47.5493 21.7653 54.9278 14.0355 64.3299 9.88239ZM36.2886 61.8557C36.2886 60.7894 36.8274 58.5092 41.2371 57.891C41.2371 57.891 41.2704 67.1693 41.3248 68.1468C38.4749 66.628 36.2886 63.8766 36.2886 61.8557ZM34.94 44.5361C35.6938 40.9828 37.6831 36.7221 38.8186 36.2887H121.181C122.317 36.7221 124.306 40.9828 125.06 44.5361H34.94ZM46.5903 71.3092C46.3218 69.3991 46.1855 67.3287 46.1855 65.1546V49.4845H113.814V65.1546C113.814 67.3287 113.678 69.3991 113.409 71.3151C111.707 83.6358 105.128 93.5997 95.3527 98.655C90.7464 101.052 85.5808 102.268 80 102.268C74.4191 102.268 69.2536 101.052 64.6416 98.6517C54.8721 93.5997 48.2929 83.6358 46.5903 71.3092ZM94.0206 104.676V110.387C92.3282 112.156 86.9651 117.113 80 117.113C73.0797 117.113 67.6796 112.147 65.9794 110.382V104.676C70.3281 106.361 75.0265 107.216 80 107.216C84.9745 107.216 89.6739 106.36 94.0206 104.676ZM52.7835 121.799C56.0013 119.982 60.4381 117.306 63.4197 114.816C66.2713 117.501 72.255 122.062 80 122.062C87.745 122.062 93.7286 117.501 96.5803 114.815C99.5609 117.305 103.996 119.98 107.216 121.799V141.856H52.7835V121.799ZM39.5876 127.508C42.0374 126.307 44.7993 125.173 47.835 124.124V141.856H39.5876V127.508ZM29.7567 155.052H19.7938V149.321C19.8245 148.64 20.5159 138.861 34.6392 130.213V141.922C31.8462 142.324 29.6907 144.726 29.6907 147.629V154.227C29.6907 154.508 29.7177 154.781 29.7567 155.052ZM125.361 154.227C125.361 154.674 124.983 155.052 124.536 155.052H35.4639C35.0169 155.052 34.6392 154.674 34.6392 154.227V147.629C34.6392 147.182 35.0169 146.804 35.4639 146.804H124.536C124.983 146.804 125.361 147.182 125.361 147.629V154.227ZM140.206 155.052H130.243C130.282 154.781 130.309 154.508 130.309 154.227V147.629C130.309 144.726 128.154 142.324 125.361 141.922V130.123C139.693 138.801 140.19 148.727 140.206 149.302V155.052Z" fill="#91B9BC"/>
<path d="M80 84.1237H86.5979V79.1752H82.4742V68.4536H77.5258V81.6495C77.5258 83.0159 78.6336 84.1237 80 84.1237Z" fill="#91B9BC"/>
</g>
<defs>
<clipPath id="clip0_527_2">
<rect width="160" height="160" fill="white"/>
</clipPath>
</defs>
</svg>
