<svg width="25" height="28" viewBox="0 0 25 28" fill="none" xmlns="http://www.w3.org/2000/svg">
<g clip-path="url(#clip0_501_12)">
<path d="M20.6217 5.29323C18.377 3.04323 15.3877 1.80573 12.211 1.80573C5.65381 1.80573 0.318094 7.14144 0.318094 13.6986C0.318094 15.7932 0.864523 17.8397 1.90381 19.645L0.216309 25.8057L6.52167 24.1504C8.25738 25.0986 10.2127 25.5968 12.2056 25.5968H12.211C18.7627 25.5968 24.2163 20.2611 24.2163 13.7039C24.2163 10.5272 22.8663 7.54323 20.6217 5.29323ZM12.211 23.5932C10.4324 23.5932 8.69131 23.1164 7.17524 22.2164L6.81631 22.0022L3.07702 22.9825L4.07345 19.3343L3.83774 18.9593C2.84667 17.3843 2.32702 15.5682 2.32702 13.6986C2.32702 8.25037 6.76274 3.81465 12.2163 3.81465C14.8574 3.81465 17.3377 4.84323 19.202 6.71287C21.0663 8.58251 22.2127 11.0629 22.2074 13.7039C22.2074 19.1575 17.6592 23.5932 12.211 23.5932ZM17.6324 16.1897C17.3377 16.0397 15.8752 15.3218 15.602 15.2254C15.3288 15.1236 15.1306 15.0754 14.9324 15.3754C14.7342 15.6754 14.1663 16.3397 13.9895 16.5432C13.8181 16.7414 13.6413 16.7682 13.3467 16.6182C11.6002 15.745 10.4538 15.0593 9.30202 13.0825C8.99667 12.5575 9.60738 12.595 10.1752 11.4593C10.2717 11.2611 10.2235 11.0897 10.1485 10.9397C10.0735 10.7897 9.47881 9.32715 9.23238 8.73251C8.99131 8.15394 8.74488 8.2343 8.56274 8.22358C8.39131 8.21287 8.19309 8.21287 7.99488 8.21287C7.79667 8.21287 7.47524 8.28787 7.20202 8.58251C6.92881 8.88251 6.16274 9.60037 6.16274 11.0629C6.16274 12.5254 7.22881 13.9397 7.37345 14.1379C7.52345 14.3361 9.46809 17.3361 12.452 18.6272C14.3377 19.4414 15.077 19.5111 16.0199 19.3718C16.5931 19.2861 17.777 18.6539 18.0235 17.9575C18.2699 17.2611 18.2699 16.6664 18.1949 16.5432C18.1252 16.4093 17.927 16.3343 17.6324 16.1897Z" fill="#F6F9FA"/>
</g>
<defs>
<clipPath id="clip0_501_12">
<rect width="24" height="27.4286" fill="white" transform="translate(0.216309 0.0914459)"/>
</clipPath>
</defs>
</svg>
